<?xml version="1.0" standalone="no"?>
<!DOCTYPE svg PUBLIC "-//W3C//DTD SVG 20010904//EN"
 "http://www.w3.org/TR/2001/REC-SVG-20010904/DTD/svg10.dtd">
<svg version="1.0" xmlns="http://www.w3.org/2000/svg"
 width="500.000000pt" height="500.000000pt" viewBox="0 0 500.000000 500.000000"
 preserveAspectRatio="xMidYMid meet">

<g transform="translate(0.000000,500.000000) scale(0.100000,-0.100000)"
fill="#000000" stroke="none">
<path d="M788 3673 c7 -3 16 -2 19 1 4 3 -2 6 -13 5 -11 0 -14 -3 -6 -6z"/>
<path d="M781 3644 c0 -11 3 -14 6 -6 3 7 2 16 -1 19 -3 4 -6 -2 -5 -13z"/>
<path d="M710 3609 c0 -5 5 -7 10 -4 6 3 10 8 10 11 0 2 -4 4 -10 4 -5 0 -10
-5 -10 -11z"/>
<path d="M1093 3613 c9 -2 25 -2 35 0 9 3 1 5 -18 5 -19 0 -27 -2 -17 -5z"/>
<path d="M983 3580 c-46 -27 -41 -34 5 -8 46 27 48 28 36 28 -5 0 -24 -9 -41
-20z"/>
<path d="M1570 3593 c-97 -17 -160 -58 -186 -120 -20 -47 -17 -160 5 -208 37
-80 97 -111 237 -122 l84 -6 0 42 0 41 -72 0 c-129 1 -188 48 -188 150 0 88
60 149 148 150 32 0 32 0 32 -50 l0 -50 40 0 40 0 0 90 0 90 -57 -1 c-32 -1
-69 -4 -83 -6z"/>
<path d="M1895 3589 c-157 -37 -211 -264 -91 -384 97 -96 258 -78 330 38 52
85 46 204 -16 282 -42 54 -143 83 -223 64z m131 -88 c85 -52 85 -210 0 -262
-62 -38 -149 -17 -186 44 -24 39 -27 125 -5 168 34 64 128 89 191 50z"/>
<path d="M1932 3401 c-8 -4 -12 -21 -10 -37 2 -23 8 -29 27 -29 31 0 50 28 35
53 -13 20 -34 25 -52 13z"/>
<path d="M2200 3560 l0 -40 88 0 c102 0 132 -14 132 -60 0 -41 -23 -50 -129
-50 l-91 0 0 -135 0 -135 40 0 40 0 0 95 0 95 29 0 c26 0 31 -7 71 -95 l43
-95 43 0 c50 0 51 -8 -9 119 l-35 74 39 37 c36 34 39 41 39 93 0 102 -56 137
-219 137 l-81 0 0 -40z"/>
<path d="M2530 3370 l0 -230 105 0 105 0 0 40 0 40 -65 0 -65 0 0 55 0 55 95
0 95 0 0 40 0 40 -95 0 -95 0 0 55 0 55 65 0 65 0 0 40 0 40 -105 0 -105 0 0
-230z"/>
<path d="M2960 3465 l0 -135 93 0 c103 0 137 -14 137 -55 0 -34 -36 -55 -92
-55 l-48 0 0 -41 0 -42 65 6 c111 11 155 47 155 128 0 41 -4 51 -31 74 -31 26
-31 26 -12 40 51 36 54 122 5 167 -36 34 -89 48 -189 48 l-83 0 0 -135z m210
35 c45 -45 8 -90 -75 -90 l-55 0 0 55 0 55 55 0 c42 0 60 -5 75 -20z"/>
<path d="M3300 3460 l0 -140 40 0 40 0 0 140 0 140 -40 0 -40 0 0 -140z"/>
<path d="M3735 3591 c-75 -19 -113 -51 -146 -126 -29 -65 -23 -155 15 -219 32
-55 55 -72 123 -92 146 -43 273 58 273 216 0 113 -63 198 -162 220 -54 11 -60
11 -103 1z m116 -86 c45 -24 69 -70 69 -135 0 -93 -52 -150 -137 -150 -77 0
-133 63 -133 149 0 52 32 116 68 135 35 20 95 20 133 1z"/>
<path d="M3762 3398 c-25 -25 -6 -68 30 -68 33 0 43 53 14 72 -16 11 -30 10
-44 -4z"/>
<path d="M4210 3586 c-69 -15 -89 -26 -128 -70 -59 -67 -64 -197 -10 -284 31
-51 103 -80 216 -88 l92 -7 0 142 0 141 -85 0 -85 0 0 -40 0 -40 45 0 45 0 0
-60 0 -60 -32 0 c-50 1 -114 34 -132 69 -9 16 -16 53 -16 81 0 105 56 149 188
150 l72 0 0 40 0 40 -57 -1 c-32 0 -83 -6 -113 -13z"/>
<path d="M793 3530 c0 -30 2 -43 4 -27 2 15 2 39 0 55 -2 15 -4 2 -4 -28z"/>
<path d="M1140 3568 c0 -12 7 -18 23 -17 15 0 17 2 7 6 -8 3 -18 11 -22 17 -5
7 -8 4 -8 -6z"/>
<path d="M733 3470 c0 -36 2 -50 4 -32 2 17 2 47 0 65 -2 17 -4 3 -4 -33z"/>
<path d="M1131 3514 c0 -11 3 -14 6 -6 3 7 2 16 -1 19 -3 4 -6 -2 -5 -13z"/>
<path d="M1181 3504 c0 -11 3 -14 6 -6 3 7 2 16 -1 19 -3 4 -6 -2 -5 -13z"/>
<path d="M944 3420 c0 -52 1 -74 3 -47 2 26 2 68 0 95 -2 26 -3 4 -3 -48z"/>
<path d="M880 3456 c0 -2 8 -10 18 -17 15 -13 16 -12 3 4 -13 16 -21 21 -21
13z"/>
<path d="M1122 3435 c0 -16 2 -22 5 -12 2 9 2 23 0 30 -3 6 -5 -1 -5 -18z"/>
<path d="M782 3420 c0 -14 2 -19 5 -12 2 6 2 18 0 25 -3 6 -5 1 -5 -13z"/>
<path d="M850 3396 c0 -2 7 -7 16 -10 8 -3 12 -2 9 4 -6 10 -25 14 -25 6z"/>
<path d="M1162 3375 c0 -16 2 -22 5 -12 2 9 2 23 0 30 -3 6 -5 -1 -5 -18z"/>
<path d="M721 3364 c0 -11 3 -14 6 -6 3 7 2 16 -1 19 -3 4 -6 -2 -5 -13z"/>
<path d="M700 3306 c0 -3 5 -15 11 -28 7 -17 39 -34 117 -65 l107 -42 110 12
c86 9 110 15 110 27 0 12 -19 15 -108 15 -82 0 -106 3 -102 13 2 6 -2 12 -10
12 -9 0 -12 -6 -9 -15 5 -11 -12 -7 -57 15 -35 16 -80 32 -99 36 -19 3 -43 9
-52 15 -10 5 -18 7 -18 5z"/>
<path d="M1162 3285 c0 -16 2 -22 5 -12 2 9 2 23 0 30 -3 6 -5 -1 -5 -18z"/>
<path d="M1008 3273 c7 -3 16 -2 19 1 4 3 -2 6 -13 5 -11 0 -14 -3 -6 -6z"/>
<path d="M1048 3273 c6 -2 18 -2 25 0 6 3 1 5 -13 5 -14 0 -19 -2 -12 -5z"/>
<path d="M965 3260 c-3 -6 1 -7 9 -4 18 7 21 14 7 14 -6 0 -13 -4 -16 -10z"/>
<path d="M1098 3263 c7 -3 16 -2 19 1 4 3 -2 6 -13 5 -11 0 -14 -3 -6 -6z"/>
<path d="M3300 3180 l0 -40 125 0 125 0 0 40 0 40 -125 0 -125 0 0 -40z"/>
</g>
</svg>
